<svg xmlns="http://www.w3.org/2000/svg" viewBox="0 0 400 400" width="400" height="400" role="img" aria-label="Keychron K2 V2"><rect width="400" height="400" fill="#f0f2f5"/><rect x="70" y="150" width="260" height="110" rx="14" fill="#0e7490"/><rect x="86" y="168" width="26" height="20" rx="4" fill="#ffffff" opacity=".85"/><rect x="116" y="168" width="26" height="20" rx="4" fill="#ffffff" opacity=".85"/><rect x="146" y="168" width="26" height="20" rx="4" fill="#ffffff" opacity=".85"/><rect x="176" y="168" width="26" height="20" rx="4" fill="#ffffff" opacity=".85"/><rect x="206" y="168" width="26" height="20" rx="4" fill="#ffffff" opacity=".85"/><rect x="236" y="168" width="26" height="20" rx="4" fill="#ffffff" opacity=".85"/><rect x="266" y="168" width="26" height="20" rx="4" fill="#ffffff" opacity=".85"/><rect x="296" y="168" width="26" height="20" rx="4" fill="#ffffff" opacity=".85"/><rect x="86" y="196" width="26" height="20" rx="4" fill="#ffffff" opacity=".85"/><rect x="116" y="196" width="26" height="20" rx="4" fill="#ffffff" opacity=".85"/><rect x="146" y="196" width="26" height="20" rx="4" fill="#ffffff" opacity=".85"/><rect x="176" y="196" width="26" height="20" rx="4" fill="#ffffff" opacity=".85"/><rect x="206" y="196" width="26" height="20" rx="4" fill="#ffffff" opacity=".85"/><rect x="236" y="196" width="26" height="20" rx="4" fill="#ffffff" opacity=".85"/><rect x="266" y="196" width="26" height="20" rx="4" fill="#ffffff" opacity=".85"/><rect x="296" y="196" width="26" height="20" rx="4" fill="#ffffff" opacity=".85"/><rect x="86" y="224" width="26" height="20" rx="4" fill="#ffffff" opacity=".85"/><rect x="116" y="224" width="26" height="20" rx="4" fill="#ffffff" opacity=".85"/><rect x="146" y="224" width="26" height="20" rx="4" fill="#ffffff" opacity=".85"/><rect x="176" y="224" width="26" height="20" rx="4" fill="#ffffff" opacity=".85"/><rect x="206" y="224" width="26" height="20" rx="4" fill="#ffffff" opacity=".85"/><rect x="236" y="224" width="26" height="20" rx="4" fill="#ffffff" opacity=".85"/><rect x="266" y="224" width="26" height="20" rx="4" fill="#ffffff" opacity=".85"/><rect x="296" y="224" width="26" height="20" rx="4" fill="#ffffff" opacity=".85"/><text x="200" y="345" text-anchor="middle" font-family="Segoe UI, Arial, sans-serif" font-size="20" fill="#1c2230">Keychron K2 V2</text></svg>